<svg width="100" height="23" viewBox="0 0 100 23" fill="none" xmlns="http://www.w3.org/2000/svg">
<path d="M10.9659 22.1818C7.9053 22.1818 5.39015 21.1212 3.42045 19C1.48106 16.8788 0.602273 14.303 0.784091 11.2727C0.996212 8.27273 2.25379 5.74242 4.55682 3.68182C6.89015 1.59091 9.57197 0.545454 12.6023 0.545454C15.5114 0.545454 17.9659 1.59091 19.9659 3.68182C21.9659 5.77273 22.8447 8.30303 22.6023 11.2727C22.4508 13.2727 21.7992 15.1061 20.6477 16.7727C19.5265 18.4091 18.1023 19.7273 16.375 20.7273C14.6477 21.697 12.8447 22.1818 10.9659 22.1818ZM49.0909 22.1818C46.0303 22.1818 43.5152 21.1212 41.5455 19C39.6061 16.8788 38.7273 14.303 38.9091 11.2727C39.1212 8.27273 40.3788 5.74242 42.6818 3.68182C45.0152 1.59091 47.697 0.545454 50.7273 0.545454C53.6364 0.545454 56.0909 1.59091 58.0909 3.68182C60.0909 5.77273 60.9697 8.30303 60.7273 11.2727C60.5758 13.2727 59.9242 15.1061 58.7727 16.7727C57.6515 18.4091 56.2273 19.7273 54.5 20.7273C52.7727 21.697 50.9697 22.1818 49.0909 22.1818ZM87.2159 22.1818C84.1553 22.1818 81.6402 21.1212 79.6705 19C77.7311 16.8788 76.8523 14.303 77.0341 11.2727C77.2462 8.27273 78.5038 5.74242 80.8068 3.68182C83.1402 1.59091 85.822 0.545454 88.8523 0.545454C91.7614 0.545454 94.2159 1.59091 96.2159 3.68182C98.2159 5.77273 99.0947 8.30303 98.8523 11.2727C98.7008 13.2727 98.0492 15.1061 96.8977 16.7727C95.7765 18.4091 94.3523 19.7273 92.625 20.7273C90.8977 21.697 89.0947 22.1818 87.2159 22.1818Z" fill="white"/>
</svg>
